<?xml version="1.0" encoding="UTF-8"?> <svg xmlns="http://www.w3.org/2000/svg" viewBox="0 0 34.87 49.61"> <defs> <style>.cls-1{fill:#5eb7c6;}.cls-1,.cls-2,.cls-3{fill-rule:evenodd;}.cls-2{fill:#4a7b84;}.cls-3{fill:#201600;}</style> </defs> <title>fipi-logo-org</title> <g id="Слой_2" data-name="Слой 2"> <g id="_1" data-name="???? 1"> <path class="cls-1" d="M.38,0h.1l34,34v.1H.38V0Zm8.2,0L34.5,25.92V17.78L16.72,0ZM24.82,0,34.5,9.68V0Z"></path> <path class="cls-2" d="M8.61,17.56A8.19,8.19,0,1,1,.42,25.75,8.21,8.21,0,0,1,8.61,17.56Z"></path> <path class="cls-3" d="M5.58,43.09V47.4H7.75a2.74,2.74,0,0,0,.91-.2.94.94,0,0,0,.47-.54,3.4,3.4,0,0,0,.16-1.17v-.17c0-1.41-.41-2.15-1.22-2.23Zm-.94,6.52V48.25H2.21a2.74,2.74,0,0,1-.73-.13,2,2,0,0,1-.54-.28,7.28,7.28,0,0,1-.61-.53A3.39,3.39,0,0,1,0,45.49c0-.1,0-.25,0-.44s0-.31,0-.36a2.2,2.2,0,0,1,.35-1.25,2.29,2.29,0,0,1,1-.86,2.8,2.8,0,0,1,1.33-.31h2v-.83h.86v.83h2a3,3,0,0,1,1.34.31,2.41,2.41,0,0,1,1,.86,2.21,2.21,0,0,1,.36,1.25v.8a3.42,3.42,0,0,1-.31,1.82A4.49,4.49,0,0,1,9,48a2.48,2.48,0,0,1-1,.24H5.58v1.36Zm-3.37-6A.89.89,0,0,0,1,44.1,4.22,4.22,0,0,0,.93,45s0,.11,0,.2a2.36,2.36,0,0,1,0,.25,3.45,3.45,0,0,0,.15,1.17.92.92,0,0,0,.48.54,2.62,2.62,0,0,0,.91.2H4.64V43.09H2.17A1.77,1.77,0,0,0,1.27,43.63Z"></path> <polygon class="cls-3" points="11.28 41.38 12.22 41.38 12.22 48.86 17 41.38 18.57 41.38 18.57 49.57 17.63 49.57 17.63 42.17 12.84 49.57 11.28 49.57 11.28 41.38"></polygon> <polygon class="cls-3" points="26.48 41.38 26.48 49.57 25.51 49.57 25.51 45.77 25.52 42.2 20.5 42.2 20.5 49.57 19.55 49.57 19.55 41.38 26.48 41.38"></polygon> <polygon class="cls-3" points="27.59 41.38 28.52 41.38 28.52 48.86 33.31 41.38 34.87 41.38 34.87 49.57 33.94 49.57 33.94 42.17 29.14 49.57 27.59 49.57 27.59 41.38"></polygon> </g> </g> </svg> 